<svg xmlns="http://www.w3.org/2000/svg" width="128" height="128" viewBox="0 0 128 128">
  <rect width="128" height="128" rx="16" fill="#1e1e1e"/>
  <g transform="translate(12, 32) scale(3.2)" fill="#C5C5C5">
    <path d="M5.27469 6.99998C5.52556 4.47333 7.65733 2.5 10.25 2.5C12.8427 2.5 14.9745 4.47334 15.2253 7H16V8H15.2253C14.9745 10.5267 12.8427 12.5 10.25 12.5C7.65732 12.5 5.52554 10.5267 5.27469 7.99998H1.5642L4 10.4358L3.29289 11.1429L0 7.84999V7.14288L3.29289 3.84998L4 4.55708L1.56066 6.99644V6.99998H5.27469ZM10.25 3.5C8.04086 3.5 6.25 5.29086 6.25 7.5C6.25 9.70914 8.04086 11.5 10.25 11.5C12.4591 11.5 14.25 9.70914 14.25 7.5C14.25 5.29086 12.4591 3.5 10.25 3.5Z"/>
  </g>
  <g transform="translate(64, 32) scale(3.2)" fill="#C5C5C5">
    <path d="M10.7253 6.99998C10.4744 4.47333 8.34267 2.5 5.75 2.5C3.15733 2.5 1.02555 4.47334 0.774688 7H0V8H0.774688C1.02555 10.5267 3.15733 12.5 5.75 12.5C8.34268 12.5 10.4745 10.5267 10.7253 7.99998H14.4358L12 10.4358L12.7071 11.1429L16 7.84999V7.14288L12.7071 3.84998L12 4.55708L14.4393 6.99644V6.99998H10.7253ZM5.75 3.5C7.95914 3.5 9.75 5.29086 9.75 7.5C9.75 9.70914 7.95914 11.5 5.75 11.5C3.54086 11.5 1.75 9.70914 1.75 7.5C1.75 5.29086 3.54086 3.5 5.75 3.5Z"/>
  </g>
</svg>
